<svg version="1.2" xmlns="http://www.w3.org/2000/svg" viewBox="0 0 24 24" width="24" height="24">
	<style>
		.s0 { fill: #f7df1e } 
	</style>
	<g id="Layer 1">
		<path class="s0" d="m0 0h24v24h-24zm22.03 18.28c-0.17-1.1-0.88-2.02-3-2.88-0.74-0.34-1.55-0.58-1.8-1.14-0.09-0.33-0.1-0.51-0.04-0.7 0.15-0.65 0.91-0.84 1.51-0.66 0.39 0.12 0.75 0.42 0.98 0.9 1.03-0.68 1.03-0.68 1.75-1.13-0.27-0.42-0.4-0.6-0.58-0.78-0.63-0.7-1.47-1.06-2.84-1.03l-0.7 0.09c-0.68 0.16-1.32 0.52-1.71 1-1.14 1.29-0.81 3.54 0.57 4.47 1.36 1.02 3.36 1.25 3.61 2.21 0.24 1.17-0.87 1.54-1.96 1.41-0.81-0.18-1.26-0.59-1.76-1.34l-1.83 1.05c0.21 0.48 0.45 0.69 0.81 1.11 1.74 1.76 6.09 1.67 6.87-1 0.03-0.09 0.24-0.71 0.08-1.65zm-8.98-7.25h-2.25q-0.01 2.9-0.01 5.81c0 1.23 0.06 2.36-0.14 2.71-0.33 0.69-1.18 0.6-1.57 0.48-0.39-0.2-0.59-0.47-0.83-0.86-0.06-0.1-0.11-0.19-0.12-0.19l-1.83 1.12c0.31 0.63 0.75 1.18 1.33 1.52 0.85 0.51 2 0.68 3.2 0.41 0.79-0.23 1.46-0.7 1.81-1.42 0.51-0.93 0.41-2.07 0.4-3.34q0.01-3.08 0-6.18z"/>
	</g>
</svg>