<svg version="1.2" xmlns="http://www.w3.org/2000/svg" viewBox="0 0 24 24" width="24" height="24">
	<style>
		.s0 { fill: #61dafb } 
	</style>
	<g id="Layer 1">
		<path class="s0" d="m16.88 1.31c-1.35 0-3.11 0.96-4.89 2.63-1.78-1.66-3.54-2.61-4.89-2.61q-0.62 0-1.1 0.28c-1.38 0.8-1.69 3.27-0.98 6.37-3.04 0.94-5.02 2.44-5.02 4.02 0 1.59 1.99 3.1 5.04 4.03-0.7 3.12-0.39 5.59 0.99 6.38q0.48 0.28 1.1 0.28c1.35 0 3.11-0.96 4.89-2.63 1.78 1.66 3.54 2.61 4.89 2.61q0.62 0 1.1-0.28c1.38-0.79 1.69-3.26 0.98-6.36 3.03-0.93 5.01-2.44 5.01-4.03 0-1.59-1.99-3.09-5.04-4.03 0.7-3.11 0.39-5.58-0.99-6.38q-0.48-0.27-1.09-0.28zm-4.88 6.79q1.11 0 2.2 0.09 0.61 0.88 1.19 1.86 0.55 0.96 1.01 1.95-0.46 0.99-1.01 1.95-0.57 0.99-1.18 1.87-1.09 0.1-2.21 0.1-1.11-0.01-2.2-0.1-0.61-0.87-1.18-1.86-0.56-0.96-1.02-1.94 0.46-0.99 1.01-1.96 0.57-0.99 1.18-1.86 1.09-0.1 2.21-0.1zm4.87-5.7v0.01q0.34 0 0.56 0.13c0.67 0.38 0.96 1.83 0.73 3.7q-0.08 0.69-0.25 1.44-1.45-0.36-3.11-0.53-0.99-1.37-2.03-2.45c1.59-1.48 3.09-2.29 4.1-2.3zm-9.77 0.02c1.02 0 2.52 0.81 4.11 2.28q-1.03 1.09-2.02 2.45-1.66 0.17-3.11 0.53-0.17-0.73-0.25-1.42c-0.23-1.86 0.05-3.32 0.71-3.7 0.19-0.09 0.4-0.13 0.56-0.14zm4.89 3.05q0.68 0.71 1.36 1.57-0.67-0.03-1.35-0.04-0.69 0-1.36 0.04 0.67-0.86 1.35-1.57zm2.24 6.53q0 0.45-0.17 0.86-0.17 0.41-0.48 0.72-0.32 0.32-0.73 0.49-0.41 0.17-0.86 0.17-0.44 0-0.85-0.17-0.41-0.17-0.73-0.48-0.31-0.32-0.48-0.73-0.17-0.41-0.17-0.86 0-0.44 0.17-0.85 0.17-0.41 0.48-0.73 0.32-0.31 0.73-0.48 0.41-0.17 0.85-0.17 0.45 0 0.86 0.17 0.41 0.17 0.73 0.48 0.31 0.32 0.48 0.73 0.17 0.41 0.17 0.85zm-5.87-3.65q-0.36 0.57-0.7 1.16-0.34 0.59-0.63 1.18-0.4-0.99-0.68-1.95 0.96-0.23 2.02-0.39zm7.25 0q1.05 0.16 2.01 0.39-0.27 0.95-0.66 1.93-0.3-0.58-0.64-1.17-0.34-0.59-0.7-1.15zm3.06 0.68q0.73 0.22 1.37 0.5c1.73 0.74 2.85 1.71 2.85 2.47 0 0.77-1.12 1.74-2.85 2.48q-0.64 0.27-1.36 0.49-0.42-1.44-1.1-2.98 0.68-1.53 1.09-2.96zm-13.4 0q0.42 1.45 1.1 2.98-0.67 1.53-1.08 2.97-0.73-0.23-1.37-0.5c-1.74-0.74-2.86-1.71-2.86-2.48 0-0.77 1.12-1.74 2.86-2.47q0.63-0.27 1.35-0.5zm11.68 4.28q0.4 0.99 0.68 1.95-0.97 0.24-2.02 0.39 0.36-0.56 0.71-1.16 0.33-0.59 0.63-1.18zm-9.94 0.02q0.29 0.59 0.64 1.18 0.34 0.58 0.7 1.14-1.04-0.15-2.01-0.38 0.28-0.96 0.67-1.94zm10.89 2.99q0.17 0.74 0.25 1.42c0.23 1.87-0.05 3.32-0.71 3.71q-0.22 0.13-0.56 0.13c-1.01 0-2.52-0.81-4.11-2.28q1.03-1.08 2.02-2.44 1.66-0.18 3.11-0.54zm-11.83 0.01q1.45 0.35 3.11 0.53 0.99 1.36 2.03 2.45c-1.59 1.48-3.09 2.29-4.11 2.29q-0.33-0.01-0.55-0.13c-0.67-0.38-0.96-1.83-0.73-3.7q0.08-0.7 0.25-1.44zm4.56 0.64q0.66 0.03 1.35 0.03 0.69 0 1.36-0.03-0.67 0.86-1.35 1.57-0.68-0.71-1.36-1.57z"/>
	</g>
</svg>