<svg version="1.2" xmlns="http://www.w3.org/2000/svg" viewBox="0 0 24 24" width="24" height="24">
	<style>
		.s0 { fill: #06b6d4 } 
	</style>
	<g id="Layer 1">
		<path class="s0" d="m12 4.8q-4.8 0-6 4.8 1.8-2.4 4.2-1.8c0.91 0.23 1.57 0.89 2.29 1.62 1.18 1.2 2.54 2.58 5.51 2.58q4.8 0 6-4.8-1.8 2.4-4.2 1.8c-0.91-0.23-1.56-0.89-2.29-1.62-1.17-1.2-2.53-2.58-5.51-2.58zm-6 7.2q-4.8 0-6 4.8 1.8-2.4 4.2-1.8c0.91 0.23 1.57 0.89 2.29 1.62 1.18 1.2 2.54 2.58 5.51 2.58q4.8 0 6-4.8-1.8 2.4-4.2 1.8c-0.91-0.23-1.56-0.89-2.29-1.62-1.17-1.2-2.53-2.58-5.51-2.58z"/>
	</g>
</svg>