<svg version="1.2" xmlns="http://www.w3.org/2000/svg" viewBox="0 0 24 24" width="24" height="24">
	<style>
		.s0 { fill: #3178c6 } 
	</style>
	<g id="Layer 1">
		<path class="s0" d="m1.13 0c-0.63 0-1.13 0.5-1.13 1.13v21.75c0 0.62 0.5 1.12 1.13 1.12h21.75c0.62 0 1.12-0.5 1.12-1.13v-21.75c0-0.62-0.5-1.12-1.13-1.12zm17.37 9.75q0.92 0 1.62 0.11 0.17 0.03 0.34 0.06 0.16 0.03 0.33 0.08 0.16 0.04 0.32 0.09 0.16 0.05 0.32 0.11v2.46q-0.07-0.05-0.15-0.1-0.08-0.05-0.16-0.1-0.08-0.04-0.17-0.08-0.08-0.04-0.16-0.08-0.09-0.04-0.18-0.08-0.09-0.03-0.18-0.07-0.09-0.03-0.18-0.06-0.09-0.03-0.18-0.05-0.17-0.05-0.35-0.09-0.18-0.03-0.36-0.06-0.17-0.02-0.35-0.04-0.18-0.01-0.36-0.01-0.45 0-0.82 0.08-0.09 0.02-0.17 0.05-0.08 0.02-0.16 0.05-0.07 0.03-0.15 0.07-0.07 0.03-0.15 0.08-0.25 0.15-0.39 0.37-0.03 0.05-0.06 0.11-0.03 0.06-0.05 0.12-0.01 0.07-0.02 0.13-0.01 0.07-0.01 0.13 0 0.29 0.16 0.53 0.15 0.23 0.44 0.44 0.29 0.21 0.7 0.41 0.4 0.21 0.92 0.42 0.71 0.3 1.27 0.63 0.56 0.33 0.96 0.75 0.4 0.42 0.61 0.96 0.22 0.54 0.22 1.25 0 0.99-0.38 1.66-0.09 0.16-0.2 0.31-0.11 0.15-0.23 0.29-0.13 0.14-0.28 0.26-0.14 0.12-0.3 0.22-0.17 0.11-0.35 0.2-0.18 0.09-0.36 0.17-0.19 0.07-0.38 0.13-0.2 0.06-0.39 0.1-0.85 0.18-1.79 0.18-0.24 0-0.47-0.01-0.23-0.01-0.46-0.03-0.23-0.02-0.46-0.05-0.23-0.04-0.45-0.08-0.2-0.03-0.39-0.08-0.2-0.05-0.39-0.11-0.19-0.06-0.37-0.14-0.19-0.07-0.37-0.16v-2.63q0.34 0.29 0.72 0.51 0.38 0.22 0.8 0.38 0.41 0.15 0.84 0.23 0.44 0.08 0.88 0.08 0.5 0 0.87-0.09 0.38-0.09 0.63-0.25 0.24-0.16 0.37-0.38 0.07-0.13 0.1-0.27 0.03-0.14 0.02-0.29-0.01-0.14-0.06-0.28-0.05-0.13-0.14-0.25-0.05-0.07-0.11-0.14-0.06-0.07-0.13-0.13-0.07-0.07-0.14-0.12-0.07-0.06-0.15-0.11-0.1-0.06-0.2-0.12-0.1-0.06-0.2-0.12-0.1-0.05-0.2-0.1-0.1-0.06-0.21-0.1-0.12-0.06-0.25-0.12-0.12-0.05-0.25-0.11-0.13-0.05-0.25-0.1-0.13-0.06-0.26-0.11-1.37-0.57-2.05-1.4-0.67-0.83-0.68-2.01 0-0.92 0.37-1.58 0.37-0.66 1.01-1.09 0.17-0.11 0.34-0.21 0.18-0.09 0.36-0.17 0.19-0.08 0.38-0.14 0.19-0.06 0.39-0.11 0.22-0.05 0.44-0.09 0.22-0.04 0.44-0.06 0.22-0.03 0.44-0.04 0.22-0.01 0.45-0.01zm-15.12 0.19h9.57v2.16h-3.43v9.65h-2.72v-9.65h-3.42z"/>
	</g>
</svg>