<svg version="1.2" xmlns="http://www.w3.org/2000/svg" viewBox="0 0 24 24" width="24" height="24">
	<style>
		.s0 { fill: #408aff } 
	</style>
	<g id="Layer 1">
		<path class="s0" d="m2.58 3.58q0.12-0.32 0.33-0.6 0.21-0.27 0.5-0.47 0.28-0.2 0.61-0.3 0.33-0.11 0.68-0.11h14.61c0.95 0 1.8 0.6 2.12 1.49l2.44 6.78q0.11 0.31 0.13 0.65 0.01 0.34-0.07 0.66-0.08 0.33-0.26 0.62-0.17 0.29-0.43 0.51l-9.61 8.52q-0.3 0.27-0.68 0.42-0.39 0.14-0.79 0.15-0.41 0-0.8-0.14-0.38-0.14-0.69-0.41l-9.89-8.58q-0.26-0.22-0.44-0.51-0.18-0.29-0.27-0.62-0.08-0.33-0.07-0.67 0.02-0.34 0.14-0.66zm12.03 4.88l-9.11 5.54 5.74 5.01c0.46 0.4 1.14 0.39 1.6-0.01l5.64-5h-4.09l6.24-3.96c0.49-0.33 0.69-0.94 0.49-1.5l-1.24-3.44q-0.08-0.23-0.22-0.42-0.15-0.19-0.34-0.32-0.2-0.14-0.43-0.21-0.23-0.07-0.46-0.07h-12.89q-0.24 0-0.46 0.08-0.22 0.07-0.42 0.2-0.19 0.14-0.33 0.32-0.14 0.19-0.22 0.41l-1.23 3.37z"/>
	</g>
</svg>